<?xml version="1.0" encoding="utf-8"?>
<!-- Generator: Adobe Illustrator 23.0.3, SVG Export Plug-In . SVG Version: 6.00 Build 0)  -->
<svg version="1.1" id="Calque_1" xmlns="http://www.w3.org/2000/svg" xmlns:xlink="http://www.w3.org/1999/xlink" x="0px" y="0px"
	 viewBox="0 0 919.6 891" style="enable-background:new 0 0 919.6 891;" xml:space="preserve">
<style type="text/css">
	.st0{fill:#FFFFFF;}
</style>
<title>proballers</title>
<g>
	<path class="st0" d="M455.7,4.1C211.9,4.1,14.3,201.7,14.3,445.5s197.6,441.4,441.4,441.4s441.4-197.6,441.4-441.4
		S699.5,4.1,455.7,4.1z M455.7,806.7C256.2,806.7,94.6,645,94.6,445.5S256.2,84.4,455.7,84.4s361.1,161.7,361.1,361.1
		S655.1,806.7,455.7,806.7z"/>
	<g>
		<g>
			<path class="st0" d="M213.3,373.1c-14.9,47.6-31.9,110.6-30.6,175.8c0.3,15.2,1.7,31,4.3,48.3c1.2,7.7,6.4,37.4,22.2,71.4
				c-12.2-12.8-23.9-26.2-34.2-40.7c-17.1-24.2-52.1-91.5-51.4-145.4c0.7-55.3,20.1-80.3,35.8-100.4c16.8-21.6,42-23.3,49.3-23.3
				c0.9,0,1.7,0,2.5,0.1c2.7,0.1,3.8,0.6,4,0.8C215.5,360.3,216.3,363.5,213.3,373.1z"/>
		</g>
		<g>
			<path class="st0" d="M258.4,277.9c-3,5.8-7.9,15.6-15.4,30.9c-5.3,10.7-8.2,15.5-9.7,17.6c-0.2,0-0.4-0.1-0.6-0.1
				c-4.9-1-14-3-24.6-3c-14.3,0-27.1,3.5-37.8,10.3c-17.5,11.2-30.9,24.2-42,41.4c0.1-0.6,0.3-1.2,0.4-1.8l1.1-4.5
				c2.7-11.5,5.5-23.4,9.7-34.3c7.3-19.1,18.2-39.6,31.6-59.5c3.2-4.7,6.2-7.5,8.9-8.3c5-1.5,11.1-1.6,17-1.8l1.7,0
				c0.2,0,0.4,0,0.7,0c14.9,0,48.3,8.2,59,13C258.2,277.8,258.3,277.9,258.4,277.9z"/>
		</g>
		<g>
			<path class="st0" d="M308.9,206.5c-1.3,1.7-3.2,3.9-5.7,6.7c-7.4,8.3-19.9,26.7-25,34.7c-3.6-0.8-10.3-3.3-17.3-5.8l-4.6-1.7
				c-17-6.2-39.9-8.7-55.6-8.9c6.6-8.7,16.4-20.3,31-35c15.3-15.5,28.6-25.4,39-31.8c0,11.1,6.1,21.2,18.3,30
				C294.7,198.6,302.8,203.2,308.9,206.5z"/>
		</g>
		<g>
			<path class="st0" d="M430.9,112.2c-9.8,4-18.7,8.3-26.8,12.4c-19.6,10-35.2,23.1-47.7,33.7c-6.4,5.4-11.9,10.1-16,12.6
				c-5.4,3.3-9.3,4.8-12.7,4.8c-3.7,0-8.1-1.8-13.6-5.8c-10.1-7.2-10.1-12.1-6.3-19.2c2.2-4.3,15.9-14.1,44.3-23.6
				c0.9-0.3,1.9-0.6,2.8-0.9l1.1-0.4C371.2,120.6,391.3,113.8,430.9,112.2z"/>
		</g>
		<g>
			<path class="st0" d="M533.2,771.8c-21.6,4.9-47.3,7.3-76.5,7.3c-2.3,0-4.5,0-6.9,0c-44.5-0.6-89.9-11.2-135-31.6
				c-33.2-15-58.5-43.5-75.1-84.5c-21.2-52.2-27.4-112.3-18.5-178.6c2.8-20.8,7.2-42.9,13.6-67.5l0.4-1.5c1.8-6.9,4.4-17.2,7.8-26.1
				c4.7-12.4,8.1-14.5,8.6-14.7c5.8,0.2,24.3,18.3,30.4,24.2c19.8,19.3,31.4,45.3,38.4,63.2l0.6,1.5c1.2,3,2.4,6.1,3.6,9.1
				c9.7,23.6,36.3,80.8,49,105.5c12.8,24.8,49.5,81.6,70.2,108.5c19.5,25.3,59.7,69,83.9,82.4C529.7,770,531.5,771,533.2,771.8z"/>
		</g>
		<g>
			<path class="st0" d="M735.4,627.7c-0.8,1.2-1.4,2.2-2,3.2c-5.8,9.6-11.7,18.7-17.7,27.1c-22.8,32.1-60.2,62.5-102.7,83.5
				c-11.1,5.5-22.6,9.9-34.2,13.1c-0.6,0.2-1.3,0.2-2.1,0.2c-4,0-16.1-2.1-41.9-21.4c-25.5-19.2-62.4-65.2-79.2-90.2
				c-18.9-28.1-26.2-39.2-41.2-65.6c-12.4-21.8-25.7-50.7-35.4-71.8c-2.4-5.1-4.5-9.8-6.3-13.6c-2.5-5.3-5.7-12.5-9-20.1l-0.4-0.9
				c-12.7-28.9-28.2-62.2-51.4-90.1c-6.3-7.6-12.9-14.7-19.4-21.2c-8.8-8.7-20-15.1-27.4-19.4l-0.2-0.1c-0.4-0.2-0.8-0.5-1.2-0.7
				c0.8-1.7,1.7-3.5,2.3-4.5c1.2-2.4,2.6-4.9,3.8-7.7c4.4-9.7,15.4-31.3,19.7-38.8c0.2,0.1,0.3,0.1,0.5,0.2l0.3,0.1
				c9.7,3.8,20.1,8.1,36,14.8c16.7,7.1,80,39.1,108.5,55.3c25.5,14.5,59.6,35.6,96,59.5c30.4,20,50.2,34.7,80.1,57l3.5,2.6l0.1,0.1
				c48.9,34.4,78.5,67.2,86.4,76.4c34,39.6,40.2,54.1,41.2,58.5C742.7,616.2,737.4,624.5,735.4,627.7z"/>
		</g>
		<g>
			<path class="st0" d="M739.8,266.5c-5.5-4.5-11.3-8.8-17.3-12.8c-41.7-27.8-90.1-39.7-115.3-44.4c-36.4-6.7-56.9-8.5-89.1-10.1
				c-6.1-0.3-12.5-0.4-19.4-0.4c-10,0-20.1,0.3-28.1,0.5c-8.6,0.3-16.7,0.5-24.7,0.5c-6.9,0-13-0.2-18.4-0.6
				c-24.6-1.8-43.2-3.4-58.7-8.4c-0.7-0.2-1.2-0.4-1.7-0.6c1.1-1.5,3.2-3.9,7.3-7.3c12.8-10.6,19.8-16.2,39.2-28
				c16.4-10,38.7-22.4,65-28.9c9.9-2.5,20.4-3.5,28.5-4c5.7-0.4,10.2-0.6,14.1-0.6c8.6,0,16.1,0.9,23.5,2.9c14.2,3.8,28,8.2,41,13
				c36.4,13.6,67.1,37.2,92.4,58.4C704.9,218.1,725.2,243.9,739.8,266.5z"/>
		</g>
		<g>
			<path class="st0" d="M781.8,519c-5.2,24.4-13.2,45.2-19.9,59.7c-9.9-18-30.6-46.3-74.1-85c-78.7-70.1-172.2-127.9-235.6-165.2
				c-50.4-29.6-96.5-50.1-121.2-61.1l-0.2-0.1c-6-2.7-10.7-4.7-13.8-6.2c-3.1-1.5-5.7-2.6-7.8-3.5l-0.3-0.1
				c-0.2-0.1-0.5-0.2-0.8-0.4c3.2-5,5.1-7.4,7-9.8c1-1.2,1.9-2.4,3-3.8c10.3-14.1,17.7-23,20-25.2c0.9,0.1,2.6,0.4,5.8,1.2l1.2,0.3
				c9.8,2.6,24.5,6.5,47.2,9.7c12.9,1.8,30.6,2.7,54.4,2.7c11.4,0,24.3-0.2,39.1-0.6c7.5-0.2,14.6-0.3,21.1-0.3
				c22.4,0,43,1.1,61.2,3.3c24.7,3,52.4,8.7,80.1,16.7c22.9,6.6,34.9,12.7,46.6,18.6c27.1,13.7,47.8,31.1,63.5,53
				c5,7,9.5,14,13.3,20.8c8.5,15.3,11.6,32.7,15.2,52.9l0.6,3.5C790.8,419.5,792.4,468.9,781.8,519z"/>
		</g>
	</g>
	<polygon class="st0" points="867,34.2 647,80.9 823.4,239.6 	"/>
</g>
</svg>
